<svg width="40" height="40" viewBox="0 0 40 40" fill="none" xmlns="http://www.w3.org/2000/svg">
<path d="M31.6666 13.335H25V8.3317C25.0054 7.6783 24.8794 7.03045 24.629 6.42683C24.3788 5.82323 24.0096 5.27619 23.5434 4.81837C23.0316 4.29119 22.408 3.88579 21.7186 3.63221C21.029 3.37863 20.2914 3.28333 19.56 3.35337C17.0033 3.57337 15 5.8467 15 8.52838V13.3334H8.33334C6.495 13.3334 5 14.8284 5 16.6667V33.3334C5 35.1718 6.495 36.6668 8.33334 36.6668H31.6666C33.505 36.6668 35 35.1718 35 33.3334V16.6684C35 14.83 33.505 13.335 31.6666 13.335ZM8.33334 16.6667H18.3333V8.52838C18.3333 7.57838 19.0117 6.74503 20.0034 6.66669C20.4466 6.66669 20.8566 6.83837 21.19 7.17837C21.3426 7.32887 21.4636 7.50851 21.5454 7.70665C21.6272 7.90477 21.6686 8.11734 21.6666 8.3317V16.6667H23.325L23.3334 16.6684H31.6666V20H8.33334V16.6667ZM8.33334 33.3334V23.3334H31.6666L31.67 33.3334H8.33334Z" fill="black"/>
</svg>
