<svg width="40" height="40" viewBox="0 0 40 40" fill="none" xmlns="http://www.w3.org/2000/svg">
<path d="M6.83331 29.667V10.334C6.83331 9.4253 6.83254 8.65273 6.88409 8.02148C6.93709 7.37304 7.05241 6.7418 7.35968 6.13867L7.4505 5.96973C7.91684 5.13767 8.61952 4.4607 9.47199 4.02637L9.69952 3.91992C10.2332 3.69115 10.7874 3.59715 11.3548 3.55078C11.986 3.49922 12.7586 3.5 13.6673 3.5H21.1243C21.3266 3.5 21.5127 3.50043 21.68 3.50195C22.1651 3.50637 22.6148 3.5218 23.0814 3.63379C23.5756 3.75243 24.0472 3.94835 24.4788 4.21289C25.0016 4.53333 25.4311 4.9767 25.9564 5.50195L31.1653 10.7109C31.6268 11.1724 32.0215 11.5572 32.3275 11.9961L32.4534 12.1885C32.7175 12.6196 32.9138 13.0907 33.0325 13.585C33.1414 14.0384 33.1591 14.4761 33.1644 14.9473C33.165 14.9648 33.1673 14.9823 33.1673 15C33.1673 15.0121 33.1656 15.0241 33.1653 15.0361C33.1665 15.1907 33.1663 15.3605 33.1663 15.543V29.6729C33.1663 30.5796 33.168 31.3503 33.1165 31.9805C33.0635 32.6281 32.947 33.2587 32.64 33.8613C32.2051 34.7146 31.5265 35.4179 30.6946 35.8838L30.5267 35.9736C29.924 36.2808 29.2936 36.3962 28.6458 36.4492C28.0156 36.5008 27.245 36.5 26.3382 36.5H13.6614C12.7547 36.5 11.9842 36.5007 11.3538 36.4492C10.787 36.4029 10.233 36.3088 9.69952 36.0801L9.47199 35.9736C8.56157 35.5098 7.82356 34.7688 7.36066 33.8604C7.05342 33.2573 6.9371 32.6269 6.88409 31.9785C6.83253 31.3475 6.83331 30.5756 6.83331 29.667ZM9.83331 29.667C9.83331 30.6252 9.83409 31.2539 9.87335 31.7344C9.90174 32.0815 9.94573 32.2764 9.98956 32.3984L10.0335 32.499L10.1038 32.625C10.2803 32.9129 10.5332 33.1474 10.8343 33.3008C10.9438 33.3565 11.1359 33.4222 11.598 33.46C12.0779 33.4992 12.7052 33.5 13.6614 33.5H26.3382C27.2945 33.5 27.9221 33.4992 28.4017 33.46C28.863 33.4222 29.0548 33.3566 29.1644 33.3008C29.51 33.1247 29.7918 32.8431 29.9671 32.499L30.0101 32.3984C30.0538 32.2766 30.0979 32.082 30.1263 31.7354C30.1655 31.2559 30.1663 30.629 30.1663 29.6729V16.5H26.9944C26.0878 16.5 25.3172 16.5007 24.6868 16.4492C24.039 16.3963 23.4079 16.2808 22.805 15.9736C21.8946 15.5097 21.1564 14.7685 20.6937 13.8604C20.3863 13.2572 20.2701 12.6261 20.2171 11.9775C20.1656 11.3467 20.1663 10.5754 20.1663 9.66699V6.5H13.6673C12.7091 6.5 12.0797 6.50077 11.5989 6.54004C11.136 6.57788 10.944 6.64432 10.8343 6.7002C10.4893 6.87595 10.2093 7.15603 10.0335 7.50098C9.97763 7.61068 9.9112 7.8027 9.87335 8.26563C9.83408 8.74641 9.83331 9.37582 9.83331 10.334V29.667ZM23.1663 9.66699C23.1663 10.625 23.1681 11.2531 23.2073 11.7334C23.2451 12.1959 23.3105 12.3881 23.3665 12.498L23.4378 12.625C23.6143 12.913 23.8665 13.1475 24.1673 13.3008L24.2679 13.3438C24.3897 13.3875 24.5843 13.4316 24.931 13.46C25.4108 13.4992 26.0383 13.5 26.9944 13.5H29.6937C29.5717 13.3653 29.3787 13.1665 29.0443 12.832L23.8353 7.62305C23.4999 7.28765 23.3011 7.09393 23.1663 6.97168V9.66699Z" fill="black"/>
<path d="M24.043 31.2734L25.2969 31.4258C25.3178 31.5716 25.3659 31.6719 25.4415 31.7266C25.5456 31.8047 25.7097 31.8438 25.9337 31.8438C26.2201 31.8438 26.435 31.8008 26.5782 31.7148C26.6745 31.6576 26.7475 31.5651 26.7969 31.4375C26.8308 31.3464 26.8477 31.1784 26.8477 30.9336V30.3281C26.5196 30.776 26.1055 31 25.6055 31C25.0482 31 24.6068 30.7643 24.2813 30.293C24.0261 29.9206 23.8985 29.457 23.8985 28.9023C23.8985 28.207 24.0652 27.6758 24.3985 27.3086C24.7344 26.9414 25.1511 26.7578 25.6485 26.7578C26.1615 26.7578 26.5847 26.9831 26.918 27.4336V26.8516H27.9454V30.5742C27.9454 31.0638 27.905 31.4297 27.8243 31.6719C27.7436 31.9141 27.6303 32.1042 27.4844 32.2422C27.3386 32.3802 27.1433 32.4883 26.8985 32.5664C26.6563 32.6445 26.349 32.6836 25.9766 32.6836C25.2735 32.6836 24.7748 32.5625 24.4805 32.3203C24.1863 32.0807 24.0391 31.776 24.0391 31.4062C24.0391 31.3698 24.0404 31.3255 24.043 31.2734ZM25.0235 28.8398C25.0235 29.2799 25.1081 29.6029 25.2774 29.8086C25.4493 30.0117 25.6602 30.1133 25.9102 30.1133C26.1784 30.1133 26.405 30.0091 26.5899 29.8008C26.7748 29.5898 26.8672 29.2786 26.8672 28.8672C26.8672 28.4375 26.7787 28.1185 26.6016 27.9102C26.4245 27.7018 26.2006 27.5977 25.9297 27.5977C25.6667 27.5977 25.4493 27.7005 25.2774 27.9062C25.1081 28.1094 25.0235 28.4206 25.0235 28.8398Z" fill="black"/>
<path d="M16.9454 26.8516H17.9571V27.418C18.3191 26.9779 18.7501 26.7578 19.2501 26.7578C19.5157 26.7578 19.7462 26.8125 19.9415 26.9219C20.1368 27.0312 20.2969 27.1966 20.4219 27.418C20.6042 27.1966 20.8008 27.0312 21.0118 26.9219C21.2227 26.8125 21.448 26.7578 21.6876 26.7578C21.9922 26.7578 22.2501 26.8203 22.461 26.9453C22.6719 27.0677 22.8295 27.2487 22.9337 27.4883C23.0092 27.6654 23.0469 27.9518 23.0469 28.3477V31H21.9493V28.6289C21.9493 28.2174 21.9115 27.9518 21.836 27.832C21.7344 27.6758 21.5782 27.5977 21.3672 27.5977C21.2136 27.5977 21.0691 27.6445 20.9337 27.7383C20.7982 27.832 20.7006 27.9701 20.6407 28.1523C20.5808 28.332 20.5508 28.6172 20.5508 29.0078V31H19.4532V28.7266C19.4532 28.3229 19.4337 28.0625 19.3946 27.9453C19.3555 27.8281 19.2943 27.7409 19.211 27.6836C19.1303 27.6263 19.0196 27.5977 18.879 27.5977C18.7097 27.5977 18.5574 27.6432 18.4219 27.7344C18.2865 27.8255 18.1889 27.957 18.129 28.1289C18.0717 28.3008 18.043 28.5859 18.043 28.9844V31H16.9454V26.8516Z" fill="black"/>
<path d="M14.8008 26.2891V25.2734H15.8985V26.2891H14.8008ZM14.8008 31V26.8516H15.8985V31H14.8008Z" fill="black"/>
<path d="M12.5743 31V29.9023H13.6719V31H12.5743Z" fill="black"/>
</svg>
